<svg width="281" height="274" viewBox="0 0 281 274" fill="none" xmlns="http://www.w3.org/2000/svg">
<ellipse cx="204.835" cy="71.1042" rx="56.2441" ry="56.4548" fill="#FFD037"/>
<ellipse cx="202.042" cy="72.1548" rx="45.4476" ry="46.3345" fill="#FF3D64"/>
<ellipse cx="76.165" cy="71.1042" rx="56.2441" ry="56.4548" fill="#FFD037"/>
<ellipse cx="75.0186" cy="74.2173" rx="45.4476" ry="46.3345" fill="#FF3D64"/>
<path fill-rule="evenodd" clip-rule="evenodd" d="M242.562 192.533C233.528 209.942 202.601 230.987 173.977 242.93C168.344 249.732 155.179 254.504 139.837 254.504C124.495 254.504 111.329 249.732 105.696 242.928C77.0748 230.986 46.1503 209.942 37.1176 192.534C28.345 175.627 33.3416 149.576 40.5065 136.553C43.898 130.388 47.7836 127.459 50.8039 125.182C53.7764 122.94 55.9107 121.331 55.9107 117.892C55.9107 108.056 58.5392 110.559 65.7024 117.379C73.9751 125.255 88.2959 138.89 111.601 145.927C118.399 141.837 128.528 139.243 139.84 139.243C151.149 139.243 161.276 141.836 168.074 145.924C191.381 138.887 205.703 125.251 213.976 117.375C221.139 110.555 223.768 108.052 223.768 117.888C223.768 121.327 225.902 122.936 228.875 125.178C231.895 127.455 235.781 130.385 239.173 136.549C246.338 149.573 251.335 175.625 242.562 192.533Z" fill="#FFEBB4"/>
<path d="M225.7 139.658C225.7 193.38 187.259 165.926 139.84 165.926C92.4205 165.926 53.9796 193.38 53.9796 139.658C53.9796 85.9354 92.4205 42.3848 139.84 42.3848C187.259 42.3848 225.7 85.9354 225.7 139.658Z" fill="#FFD037"/>
<path d="M159.214 193.717C159.214 204.641 146.728 216.965 140.018 216.965C133.308 216.965 120.466 204.641 120.466 193.717C120.466 182.793 129.094 181.906 140.018 181.906C150.943 181.906 159.214 182.793 159.214 193.717Z" fill="#FF3D64"/>
<path d="M103.795 199.436C98.9606 199.435 58.0871 199.436 27.3221 213.5" stroke="#D16244" stroke-width="10" stroke-linecap="round"/>
<path d="M103.795 200.317C99.6454 201.86 64.5628 214.908 43.0587 237.91" stroke="#D16244" stroke-width="10" stroke-linecap="round"/>
<path d="M175.88 200.318C180.715 200.318 221.591 200.319 252.358 214.384" stroke="#D16244" stroke-width="10" stroke-linecap="round"/>
<path d="M175.88 201.201C180.03 202.744 215.115 215.794 236.62 238.799" stroke="#D16244" stroke-width="10" stroke-linecap="round"/>
<path d="M177.836 145.658C190.014 145.658 199.886 135.853 199.886 123.758C199.886 111.663 190.014 101.858 177.836 101.858C165.658 101.858 155.786 111.663 155.786 123.758C155.786 135.853 165.658 145.658 177.836 145.658Z" fill="white"/>
<path d="M177.674 138.042C177.674 138.042 163.456 132.15 163.456 121.41C163.426 116.916 166.834 113.285 171.035 113.285C174.002 113.285 176.588 115.131 177.821 117.809C179.055 115.131 181.641 113.286 184.608 113.286C188.808 113.285 192.217 116.916 192.217 121.408C192.217 132.091 177.674 138.042 177.674 138.042H177.674Z" fill="#F34D4D"/>
<path d="M106.719 145.658C118.896 145.658 128.769 135.853 128.769 123.758C128.769 111.663 118.896 101.858 106.719 101.858C94.5406 101.858 84.6685 111.663 84.6685 123.758C84.6685 135.853 94.5406 145.658 106.719 145.658Z" fill="white"/>
<path d="M106.557 138.042C106.557 138.042 92.3383 132.15 92.3383 121.41C92.3085 116.916 95.7168 113.285 99.9169 113.285C102.885 113.285 105.47 115.131 106.704 117.809C107.937 115.131 110.523 113.286 113.491 113.286C117.691 113.285 121.099 116.916 121.099 121.408C121.099 132.091 106.557 138.042 106.557 138.042H106.557Z" fill="#F34D4D"/>
<path fill-rule="evenodd" clip-rule="evenodd" d="M167.545 219.951C159.335 223.703 150.193 225.795 140.558 225.795C130.327 225.795 120.652 223.436 112.059 219.236C112.128 234.358 124.525 246.595 139.808 246.595C154.85 246.595 167.096 234.742 167.545 219.951Z" fill="black"/>
<path d="M156.185 241.301C151.595 244.63 145.933 246.595 139.808 246.595C134.369 246.595 129.295 245.045 125.013 242.367C127.886 239.97 131.449 238.551 135.309 238.551C137.418 238.551 139.44 238.975 141.309 239.751C143.177 238.975 145.199 238.551 147.309 238.551C150.555 238.551 153.592 239.555 156.185 241.301Z" fill="#F34D4D"/>
<path d="M135.468 228.415C135.468 227.31 136.363 226.415 137.468 226.415H138.468C139.572 226.415 140.468 227.31 140.468 228.415V232.74C140.468 233.845 139.572 234.74 138.468 234.74H137.468C136.363 234.74 135.468 233.845 135.468 232.74V228.415Z" fill="white"/>
<path d="M135.468 225.605L140.468 225.799V228.298H135.468V225.605Z" fill="white"/>
<path d="M140.885 228.415C140.885 227.31 141.78 226.415 142.885 226.415H143.885C144.989 226.415 145.885 227.31 145.885 228.415V232.74C145.885 233.845 144.989 234.74 143.885 234.74H142.885C141.78 234.74 140.885 233.845 140.885 232.74V228.415Z" fill="white"/>
<path d="M140.885 225.799L145.885 225.585V228.298H140.885V225.799Z" fill="white"/>
</svg>
