<svg width="281" height="274" viewBox="0 0 281 274" fill="none" xmlns="http://www.w3.org/2000/svg">
<ellipse cx="204.835" cy="73.5271" rx="56.2441" ry="56.4548" fill="#FFD037"/>
<ellipse cx="202.042" cy="74.5776" rx="45.4476" ry="46.3345" fill="#FF3D64"/>
<ellipse cx="76.165" cy="73.5271" rx="56.2441" ry="56.4548" fill="#FFD037"/>
<ellipse cx="75.0186" cy="76.6392" rx="45.4476" ry="46.3345" fill="#FF3D64"/>
<path fill-rule="evenodd" clip-rule="evenodd" d="M240.245 194.956C231.35 212.366 200.896 233.411 172.712 245.353C167.165 252.156 154.202 256.928 139.095 256.928C123.987 256.928 111.023 252.156 105.477 245.352C77.294 233.41 46.8435 212.366 37.9493 194.958C29.3111 178.051 34.2311 151.999 41.2862 138.977C44.6257 132.812 48.4518 129.883 51.4258 127.605C54.3527 125.364 56.4543 123.755 56.4543 120.316C56.4543 110.48 59.0426 112.983 66.0959 119.803C74.2418 127.679 88.3431 141.314 111.291 148.351C117.985 144.261 127.958 141.667 139.097 141.667C150.233 141.667 160.204 144.26 166.899 148.348C189.848 141.31 203.95 127.675 212.097 119.799C219.15 112.978 221.739 110.476 221.739 120.312C221.739 123.751 223.841 125.36 226.768 127.602C229.742 129.879 233.568 132.808 236.908 138.973C243.963 151.996 248.883 178.049 240.245 194.956Z" fill="#FFEBB4"/>
<path d="M225.7 142.08C225.7 195.802 187.259 168.348 139.84 168.348C92.4205 168.348 53.9796 195.802 53.9796 142.08C53.9796 88.3573 92.4205 44.8066 139.84 44.8066C187.259 44.8066 225.7 88.3573 225.7 142.08Z" fill="#FFD037"/>
<path d="M159.214 196.14C159.214 207.064 146.728 219.388 140.018 219.388C133.308 219.388 120.466 207.064 120.466 196.14C120.466 185.215 129.094 184.329 140.018 184.329C150.943 184.329 159.214 185.215 159.214 196.14Z" fill="#FF3D64"/>
<path d="M103.795 201.859C98.9606 201.859 58.0871 201.86 27.3221 215.923" stroke="#D16244" stroke-width="10" stroke-linecap="round"/>
<path d="M103.795 202.741C99.6454 204.284 64.5628 217.332 43.0587 240.334" stroke="#D16244" stroke-width="10" stroke-linecap="round"/>
<path d="M175.88 202.74C180.715 202.74 221.591 202.741 252.358 216.806" stroke="#D16244" stroke-width="10" stroke-linecap="round"/>
<path d="M175.88 203.623C180.03 205.166 215.115 218.216 236.62 241.221" stroke="#D16244" stroke-width="10" stroke-linecap="round"/>
<path d="M152.546 132.753C154.819 145.745 166.307 155.628 180.137 155.628C195.601 155.628 208.137 143.271 208.137 128.028C208.137 118.538 203.278 110.166 195.878 105.199C186.636 120.035 170.886 130.508 152.546 132.753Z" fill="white"/>
<mask id="mask0" mask-type="alpha" maskUnits="userSpaceOnUse" x="152" y="105" width="57" height="51">
<path d="M152.546 132.753C154.819 145.745 166.307 155.628 180.137 155.628C195.601 155.628 208.137 143.271 208.137 128.028C208.137 118.538 203.278 110.166 195.878 105.199C186.636 120.035 170.886 130.508 152.546 132.753Z" fill="white"/>
</mask>
<g mask="url(#mask0)">
<path fill-rule="evenodd" clip-rule="evenodd" d="M187.546 128.891C187.546 136.036 181.669 141.828 174.421 141.828C167.172 141.828 161.296 136.036 161.296 128.891C161.296 126.525 161.94 124.307 163.065 122.399C163.274 124.589 165.144 126.303 167.421 126.303C169.837 126.303 171.796 124.372 171.796 121.991C171.796 119.747 170.057 117.903 167.835 117.697C169.771 116.588 172.02 115.953 174.421 115.953C181.669 115.953 187.546 121.745 187.546 128.891Z" fill="black"/>
</g>
<path d="M89.8046 105.199C99.0463 120.035 114.797 130.508 133.137 132.753C130.863 145.745 119.375 155.628 105.546 155.628C90.0816 155.628 77.5456 143.271 77.5456 128.028C77.5456 118.538 82.4048 110.166 89.8046 105.199V105.199Z" fill="white"/>
<mask id="mask1" mask-type="alpha" maskUnits="userSpaceOnUse" x="77" y="105" width="57" height="51">
<path d="M89.8046 105.199C99.0463 120.035 114.797 130.508 133.137 132.753C130.863 145.745 119.375 155.628 105.546 155.628C90.0816 155.628 77.5456 143.271 77.5456 128.028C77.5456 118.538 82.4048 110.166 89.8046 105.199V105.199Z" fill="white"/>
</mask>
<g mask="url(#mask1)">
<path fill-rule="evenodd" clip-rule="evenodd" d="M112.546 128.891C112.546 136.036 106.669 141.828 99.4206 141.828C92.1719 141.828 86.2956 136.036 86.2956 128.891C86.2956 126.525 86.9399 124.307 88.065 122.399C88.2737 124.589 90.1441 126.303 92.4206 126.303C94.8368 126.303 96.7956 124.372 96.7956 121.991C96.7956 119.747 95.0568 117.903 92.8349 117.697C94.7707 116.588 97.0204 115.953 99.4206 115.953C106.669 115.953 112.546 121.745 112.546 128.891Z" fill="black"/>
</g>
<path d="M126.546 237.133C129.381 232.384 133.461 229.669 137.085 230.64C140.709 231.611 142.885 236.003 142.966 241.533" stroke="black" stroke-width="2" stroke-linecap="round"/>
</svg>
