<svg width="281" height="274" viewBox="0 0 281 274" fill="none" xmlns="http://www.w3.org/2000/svg">
<g clip-path="url(#clip0)">
<ellipse cx="204.335" cy="73.5271" rx="56.2441" ry="56.4548" fill="#FFD037"/>
<ellipse cx="201.542" cy="74.5776" rx="45.4476" ry="46.3345" fill="#FF3D64"/>
<ellipse cx="75.665" cy="73.5271" rx="56.2441" ry="56.4548" fill="#FFD037"/>
<ellipse cx="74.5187" cy="76.6392" rx="45.4476" ry="46.3345" fill="#FF3D64"/>
<path fill-rule="evenodd" clip-rule="evenodd" d="M239.745 194.956C230.85 212.366 200.396 233.411 172.212 245.353C166.665 252.156 153.702 256.928 138.595 256.928C123.487 256.928 110.523 252.156 104.977 245.352C76.7941 233.41 46.3436 212.366 37.4493 194.958C28.8112 178.051 33.7311 151.999 40.7863 138.977C44.1258 132.812 47.9519 129.883 50.9258 127.605C53.8528 125.364 55.9544 123.755 55.9544 120.316C55.9544 110.48 58.5426 112.983 65.596 119.803C73.7419 127.679 87.8432 141.314 110.791 148.351C117.485 144.261 127.459 141.667 138.597 141.667C149.733 141.667 159.704 144.26 166.399 148.348C189.348 141.31 203.45 127.675 211.597 119.799C218.651 112.978 221.239 110.476 221.239 120.312C221.239 123.751 223.341 125.36 226.268 127.602C229.242 129.879 233.068 132.808 236.408 138.973C243.463 151.996 248.383 178.049 239.745 194.956Z" fill="#FFEBB4"/>
<path d="M225.2 142.08C225.2 195.802 186.759 168.348 139.34 168.348C91.9206 168.348 53.4796 195.802 53.4796 142.08C53.4796 88.3573 91.9206 44.8066 139.34 44.8066C186.759 44.8066 225.2 88.3573 225.2 142.08Z" fill="#FFD037"/>
<path d="M158.714 196.14C158.714 207.064 146.228 219.388 139.518 219.388C132.808 219.388 119.966 207.064 119.966 196.14C119.966 185.215 128.594 184.329 139.518 184.329C150.443 184.329 158.714 185.215 158.714 196.14Z" fill="#FF3D64"/>
<path d="M103.295 201.859C98.4606 201.859 57.5871 201.86 26.8221 215.923" stroke="#D16244" stroke-width="10" stroke-linecap="round"/>
<path d="M103.295 202.741C99.1455 204.284 64.0629 217.332 42.5588 240.334" stroke="#D16244" stroke-width="10" stroke-linecap="round"/>
<path d="M175.38 202.74C180.215 202.74 221.091 202.741 251.858 216.806" stroke="#D16244" stroke-width="10" stroke-linecap="round"/>
<path d="M175.38 203.623C179.53 205.166 214.615 218.216 236.12 241.221" stroke="#D16244" stroke-width="10" stroke-linecap="round"/>
<path d="M197.058 106.214L149.306 132.683C153.299 142.976 163.297 150.273 175 150.273C190.215 150.273 202.55 137.938 202.55 122.723C202.55 116.53 200.507 110.815 197.058 106.214V106.214Z" fill="white"/>
<mask id="mask0" mask-type="alpha" maskUnits="userSpaceOnUse" x="149" y="106" width="54" height="45">
<path d="M197.058 106.214L149.306 132.683C153.299 142.976 163.297 150.273 175 150.273C190.215 150.273 202.55 137.938 202.55 122.723C202.55 116.53 200.507 110.815 197.058 106.214V106.214Z" fill="white"/>
</mask>
<g mask="url(#mask0)">
<path d="M176.45 147.372C166.039 147.372 157.6 138.932 157.6 128.522C157.6 118.111 166.039 109.672 176.45 109.672C186.861 109.672 195.3 118.111 195.3 128.522C195.3 138.932 186.861 147.372 176.45 147.372Z" fill="black"/>
<path d="M164.564 129.43C166.555 130.773 170.348 128.633 173.035 124.65C175.722 120.666 176.285 116.348 174.294 115.005C172.302 113.661 168.509 115.801 165.822 119.785C163.136 123.768 162.572 128.087 164.564 129.43Z" fill="white"/>
</g>
<path d="M84.392 106.214L132.144 132.683C128.151 142.976 118.153 150.273 106.45 150.273C91.2346 150.273 78.9 137.938 78.9 122.723C78.9 116.53 80.9431 110.815 84.392 106.214V106.214Z" fill="white"/>
<mask id="mask1" mask-type="alpha" maskUnits="userSpaceOnUse" x="78" y="106" width="55" height="45">
<path d="M84.392 106.214L132.144 132.683C128.151 142.976 118.153 150.273 106.45 150.273C91.2346 150.273 78.9 137.938 78.9 122.723C78.9 116.53 80.9431 110.815 84.392 106.214V106.214Z" fill="white"/>
</mask>
<g mask="url(#mask1)">
<path d="M105 147.372C115.411 147.372 123.85 138.932 123.85 128.522C123.85 118.111 115.411 109.672 105 109.672C94.5895 109.672 86.15 118.111 86.15 128.522C86.15 138.932 94.5895 147.372 105 147.372Z" fill="black"/>
<path d="M95.5563 129.43C97.548 130.773 101.341 128.633 104.028 124.65C106.714 120.666 107.278 116.348 105.286 115.005C103.295 113.661 99.5018 115.801 96.815 119.785C94.1281 123.768 93.5646 128.087 95.5563 129.43Z" fill="white"/>
</g>
<path d="M113.34 236.889C116.721 229.66 127.243 224.389 139.701 224.389C152.159 224.389 162.681 229.66 166.062 236.889C162.681 244.117 152.159 249.389 139.701 249.389C127.243 249.389 116.721 244.117 113.34 236.889H113.34Z" fill="black"/>
<mask id="mask2" mask-type="alpha" maskUnits="userSpaceOnUse" x="113" y="224" width="54" height="26">
<path d="M113.34 236.889C116.721 229.66 127.243 224.389 139.701 224.389C152.159 224.389 162.681 229.66 166.062 236.889C162.681 244.117 152.159 249.389 139.701 249.389C127.243 249.389 116.721 244.117 113.34 236.889H113.34Z" fill="white"/>
</mask>
<g mask="url(#mask2)">
<path fill-rule="evenodd" clip-rule="evenodd" d="M139.84 272.248C137.634 273.61 135.072 274.389 132.34 274.389C124.056 274.389 117.34 267.225 117.34 258.389C117.34 249.552 124.056 242.389 132.34 242.389C135.072 242.389 137.634 243.168 139.84 244.529C142.046 243.168 144.608 242.389 147.34 242.389C155.624 242.389 162.34 249.552 162.34 258.389C162.34 267.225 155.624 274.389 147.34 274.389C144.608 274.389 142.046 273.61 139.84 272.248Z" fill="#FF3D64"/>
<rect x="133.34" y="221.389" width="5" height="10.8316" rx="2" fill="white"/>
<rect x="138.752" y="221.389" width="5" height="10.8316" rx="2" fill="white"/>
<rect x="133.34" y="221.389" width="5" height="10.8316" rx="2" fill="white"/>
<rect x="138.752" y="221.389" width="5" height="10.8316" rx="2" fill="white"/>
</g>
</g>
<defs>
<clipPath id="clip0">
<rect width="281" height="274" fill="white"/>
</clipPath>
</defs>
</svg>
