<svg width="281" height="274" viewBox="0 0 281 274" fill="none" xmlns="http://www.w3.org/2000/svg">
<ellipse cx="204.835" cy="73.5271" rx="56.2441" ry="56.4548" fill="#FFD037"/>
<ellipse cx="202.042" cy="74.5776" rx="45.4476" ry="46.3345" fill="#FF3D64"/>
<ellipse cx="76.165" cy="73.5271" rx="56.2441" ry="56.4548" fill="#FFD037"/>
<ellipse cx="75.0186" cy="76.6392" rx="45.4476" ry="46.3345" fill="#FF3D64"/>
<path fill-rule="evenodd" clip-rule="evenodd" d="M242.562 194.956C233.528 212.366 202.601 233.411 173.977 245.354C168.344 252.156 155.179 256.928 139.837 256.928C124.495 256.928 111.329 252.155 105.696 245.352C77.0748 233.41 46.1503 212.366 37.1176 194.958C28.345 178.051 33.3416 151.999 40.5065 138.977C43.898 132.812 47.7836 129.883 50.8039 127.605C53.7764 125.364 55.9107 123.755 55.9107 120.316C55.9107 110.48 58.5392 112.983 65.7024 119.803C73.9751 127.679 88.2959 141.314 111.601 148.351C118.399 144.261 128.528 141.667 139.84 141.667C151.149 141.667 161.276 144.26 168.074 148.348C191.381 141.31 205.703 127.675 213.976 119.799C221.139 112.978 223.768 110.476 223.768 120.312C223.768 123.751 225.902 125.36 228.875 127.602C231.895 129.879 235.781 132.808 239.173 138.973C246.338 151.996 251.335 178.049 242.562 194.956Z" fill="#FFEBB4"/>
<path d="M225.7 142.08C225.7 195.802 187.259 168.348 139.84 168.348C92.4205 168.348 53.9796 195.802 53.9796 142.08C53.9796 88.3573 92.4205 44.8066 139.84 44.8066C187.259 44.8066 225.7 88.3573 225.7 142.08Z" fill="#FFD037"/>
<path d="M159.214 188.752C159.214 199.676 146.728 212 140.018 212C133.308 212 120.466 199.676 120.466 188.752C120.466 177.828 129.094 176.941 140.018 176.941C150.943 176.941 159.214 177.828 159.214 188.752Z" fill="#FF3D64"/>
<path d="M103.795 201.859C98.9606 201.859 58.0871 201.86 27.3221 215.923" stroke="#D16244" stroke-width="10" stroke-linecap="round"/>
<path d="M103.795 202.741C99.6454 204.284 64.5628 217.332 43.0587 240.334" stroke="#D16244" stroke-width="10" stroke-linecap="round"/>
<path d="M175.88 202.74C180.715 202.74 221.591 202.741 252.358 216.806" stroke="#D16244" stroke-width="10" stroke-linecap="round"/>
<path d="M175.88 203.623C180.03 205.166 215.115 218.216 236.62 241.221" stroke="#D16244" stroke-width="10" stroke-linecap="round"/>
<path d="M175.477 152.054C186.601 152.054 195.618 140.794 195.618 126.905C195.618 113.016 186.601 101.757 175.477 101.757C164.354 101.757 155.337 113.016 155.337 126.905C155.337 140.794 164.354 152.054 175.477 152.054Z" fill="white"/>
<path d="M182.191 138.641C188.679 138.641 193.939 133.386 193.939 126.905C193.939 120.423 188.679 115.169 182.191 115.169C175.702 115.169 170.442 120.423 170.442 126.905C170.442 133.386 175.702 138.641 182.191 138.641Z" fill="black"/>
<path d="M176.317 128.582C179.561 128.582 182.191 125.954 182.191 122.714C182.191 119.473 179.561 116.846 176.317 116.846C173.072 116.846 170.442 119.473 170.442 122.714C170.442 125.954 173.072 128.582 176.317 128.582Z" fill="white"/>
<path d="M110.797 152.516C121.921 152.516 130.938 141.168 130.938 127.17C130.938 113.171 121.921 101.823 110.797 101.823C99.6743 101.823 90.6573 113.171 90.6573 127.17C90.6573 141.168 99.6743 152.516 110.797 152.516Z" fill="white"/>
<path d="M117.511 138.998C123.999 138.998 129.259 133.702 129.259 127.169C129.259 120.637 123.999 115.341 117.511 115.341C111.022 115.341 105.762 120.637 105.762 127.169C105.762 133.702 111.022 138.998 117.511 138.998Z" fill="black"/>
<path d="M111.637 128.859C114.881 128.859 117.511 126.211 117.511 122.944C117.511 119.678 114.881 117.03 111.637 117.03C108.392 117.03 105.762 119.678 105.762 122.944C105.762 126.211 108.392 128.859 111.637 128.859Z" fill="white"/>
<path d="M138.971 248.185C155.788 248.185 169.421 242.135 169.421 234.671C169.421 227.208 155.788 214.671 138.971 214.671C122.153 214.671 108.521 227.208 108.521 234.671C108.521 242.135 122.153 248.185 138.971 248.185Z" fill="black"/>
<path d="M117.221 243.856C120.517 238.582 126.397 235.07 133.101 235.07C135.422 235.07 137.645 235.491 139.696 236.261C141.746 235.491 143.969 235.07 146.29 235.07C152.994 235.07 158.874 238.582 162.171 243.856C156.555 246.52 148.563 248.185 139.696 248.185C130.828 248.185 122.836 246.52 117.221 243.856H117.221Z" fill="#F34D4D"/>
</svg>
