<svg width="281" height="274" viewBox="0 0 281 274" fill="none" xmlns="http://www.w3.org/2000/svg">
<ellipse cx="206.88" cy="70.6208" rx="56.2441" ry="56.4548" fill="#FFD037"/>
<ellipse cx="204.087" cy="71.6714" rx="45.4476" ry="46.3345" fill="#FF3D64"/>
<ellipse cx="78.2097" cy="70.6208" rx="56.2441" ry="56.4548" fill="#FFD037"/>
<ellipse cx="77.0633" cy="73.7329" rx="45.4476" ry="46.3345" fill="#FF3D64"/>
<path fill-rule="evenodd" clip-rule="evenodd" d="M244.607 192.05C235.573 209.459 204.646 230.505 176.022 242.447C170.389 249.25 157.224 254.022 141.882 254.022C126.539 254.022 113.374 249.249 107.741 242.446C79.1195 230.504 48.195 209.46 39.1623 192.052C30.3897 175.145 35.3862 149.093 42.5512 136.07C45.9427 129.906 49.8283 126.976 52.8486 124.699C55.8211 122.458 57.9554 120.849 57.9554 117.41C57.9554 107.574 60.5839 110.077 67.7471 116.897C76.0197 124.773 90.3406 138.407 113.646 145.445C120.444 141.355 130.573 138.761 141.885 138.761C153.194 138.761 163.32 141.354 170.119 145.442C193.425 138.404 207.747 124.769 216.02 116.892C223.184 110.072 225.813 107.57 225.813 117.406C225.813 120.845 227.947 122.454 230.92 124.695C233.94 126.972 237.826 129.902 241.218 136.067C248.383 149.09 253.38 175.143 244.607 192.05Z" fill="#FFEBB4"/>
<path d="M227.745 139.174C227.745 192.896 189.304 165.442 141.885 165.442C94.4653 165.442 56.0243 192.896 56.0243 139.174C56.0243 85.4511 94.4653 41.9004 141.885 41.9004C189.304 41.9004 227.745 85.4511 227.745 139.174Z" fill="#FFD037"/>
<path d="M161.258 193.234C161.258 204.158 148.773 216.482 142.063 216.482C135.353 216.482 122.511 204.158 122.511 193.234C122.511 182.309 131.139 181.423 142.063 181.423C152.987 181.423 161.258 182.309 161.258 193.234Z" fill="#FF3D64"/>
<path d="M105.84 198.953C101.005 198.953 60.1318 198.953 29.3668 213.017" stroke="#D16244" stroke-width="10" stroke-linecap="round"/>
<path d="M105.84 199.835C101.69 201.378 66.6076 214.426 45.1034 237.428" stroke="#D16244" stroke-width="10" stroke-linecap="round"/>
<path d="M177.925 199.834C182.76 199.834 223.636 199.834 254.402 213.9" stroke="#D16244" stroke-width="10" stroke-linecap="round"/>
<path d="M177.925 200.717C182.075 202.26 217.16 215.309 238.665 238.314" stroke="#D16244" stroke-width="10" stroke-linecap="round"/>
<path d="M178.247 148.804C192.123 148.804 203.372 137.555 203.372 123.679C203.372 109.803 192.123 98.5537 178.247 98.5537C164.371 98.5537 153.122 109.803 153.122 123.679C153.122 137.555 164.371 148.804 178.247 148.804Z" fill="white"/>
<path d="M178.247 143.779C189.348 143.779 198.347 134.78 198.347 123.679C198.347 112.578 189.348 103.579 178.247 103.579C167.146 103.579 158.147 112.578 158.147 123.679C158.147 134.78 167.146 143.779 178.247 143.779Z" fill="url(#paint0_linear)"/>
<path fill-rule="evenodd" clip-rule="evenodd" d="M178.247 105.771C172.281 109.097 168.197 115.868 168.197 123.679C168.197 131.49 172.281 138.26 178.247 141.587C184.213 138.26 188.297 131.49 188.297 123.679C188.297 115.868 184.213 109.097 178.247 105.771Z" fill="black"/>
<path d="M170.71 122.004C173.022 122.004 174.897 120.129 174.897 117.816C174.897 115.504 173.022 113.629 170.71 113.629C168.397 113.629 166.522 115.504 166.522 117.816C166.522 120.129 168.397 122.004 170.71 122.004Z" fill="white"/>
<path d="M107.247 148.804C121.123 148.804 132.372 137.555 132.372 123.679C132.372 109.803 121.123 98.5537 107.247 98.5537C93.3709 98.5537 82.1221 109.803 82.1221 123.679C82.1221 137.555 93.3709 148.804 107.247 148.804Z" fill="white"/>
<path d="M107.247 143.779C118.348 143.779 127.347 134.78 127.347 123.679C127.347 112.578 118.348 103.579 107.247 103.579C96.1462 103.579 87.1471 112.578 87.1471 123.679C87.1471 134.78 96.1462 143.779 107.247 143.779Z" fill="url(#paint1_linear)"/>
<path fill-rule="evenodd" clip-rule="evenodd" d="M107.247 105.771C101.281 109.097 97.197 115.868 97.197 123.679C97.197 131.49 101.281 138.26 107.247 141.587C113.213 138.26 117.297 131.49 117.297 123.679C117.297 115.868 113.213 109.097 107.247 105.771Z" fill="black"/>
<path d="M99.7096 122.004C102.022 122.004 103.897 120.129 103.897 117.816C103.897 115.504 102.022 113.629 99.7096 113.629C97.3969 113.629 95.5221 115.504 95.5221 117.816C95.5221 120.129 97.3969 122.004 99.7096 122.004Z" fill="white"/>
<path d="M110.961 236.535C110.961 242.224 117.893 238.899 123.473 236.535C129.053 234.171 145.579 231.454 154.552 235.348C163.525 239.241 164.405 242.122 166.305 239.942C168.204 237.762 161.719 228.012 144.237 224.832C126.756 221.651 110.961 230.846 110.961 236.535Z" fill="#FB8646"/>
<path d="M126.364 225.618C131.687 224.182 137.979 223.644 144.505 224.832C144.6 224.849 144.695 224.866 144.79 224.884L141.052 228.679L138.997 224.733L136.181 228.679L133.622 224.733L131.207 229.783L126.364 225.618H126.364Z" fill="white"/>
<defs>
<linearGradient id="paint0_linear" x1="158.342" y1="103.579" x2="158.342" y2="143.389" gradientUnits="userSpaceOnUse">
<stop stop-color="#FF9400"/>
<stop offset="1" stop-color="#5D9F18"/>
</linearGradient>
<linearGradient id="paint1_linear" x1="87.3422" y1="103.579" x2="87.3422" y2="143.389" gradientUnits="userSpaceOnUse">
<stop stop-color="#FF9400"/>
<stop offset="1" stop-color="#31A21E"/>
</linearGradient>
</defs>
</svg>
