<svg width="282" height="274" viewBox="0 0 282 274" fill="none" xmlns="http://www.w3.org/2000/svg">
<ellipse cx="205.335" cy="71.5456" rx="56.2441" ry="56.4548" fill="#FFD037"/>
<ellipse cx="202.542" cy="72.5962" rx="45.4476" ry="46.3345" fill="#FF3D64"/>
<ellipse cx="76.665" cy="71.5456" rx="56.2441" ry="56.4548" fill="#FFD037"/>
<ellipse cx="75.5187" cy="74.6587" rx="45.4476" ry="46.3345" fill="#FF3D64"/>
<path fill-rule="evenodd" clip-rule="evenodd" d="M243.062 192.974C234.028 210.383 203.101 231.429 174.477 243.371C168.844 250.174 155.679 254.945 140.337 254.945C124.995 254.945 111.829 250.173 106.196 243.37C77.5748 231.428 46.6503 210.384 37.6176 192.976C28.845 176.069 33.8416 150.017 41.0065 136.994C44.398 130.83 48.2836 127.9 51.3039 125.623C54.2764 123.382 56.4107 121.773 56.4107 118.334C56.4107 108.498 59.0392 111 66.2024 117.82C74.4751 125.697 88.7959 139.331 112.101 146.368C118.899 142.279 129.028 139.685 140.34 139.685C151.649 139.685 161.776 142.278 168.574 146.366C191.881 139.328 206.203 125.693 214.476 117.816C221.639 110.996 224.268 108.493 224.268 118.33C224.268 121.769 226.402 123.378 229.375 125.619C232.395 127.896 236.281 130.826 239.673 136.991C246.838 150.014 251.835 176.067 243.062 192.974Z" fill="#FFEBB4"/>
<path d="M226.2 140.099C226.2 193.822 187.759 166.367 140.34 166.367C92.9206 166.367 54.4796 193.822 54.4796 140.099C54.4796 86.3768 92.9206 42.8262 140.34 42.8262C187.759 42.8262 226.2 86.3768 226.2 140.099Z" fill="#FFD037"/>
<path d="M159.714 194.158C159.714 205.083 147.228 217.407 140.518 217.407C133.808 217.407 120.966 205.083 120.966 194.158C120.966 183.234 129.594 182.348 140.518 182.348C151.443 182.348 159.714 183.234 159.714 194.158Z" fill="#FF3D64"/>
<path d="M104.295 199.877C99.4606 199.877 58.5871 199.877 27.8221 213.941" stroke="#D16244" stroke-width="10" stroke-linecap="round"/>
<path d="M104.295 200.759C100.145 202.302 65.0629 215.35 43.5588 238.352" stroke="#D16244" stroke-width="10" stroke-linecap="round"/>
<path d="M176.38 200.76C181.215 200.76 222.091 200.76 252.858 214.825" stroke="#D16244" stroke-width="10" stroke-linecap="round"/>
<path d="M176.38 201.642C180.53 203.186 215.615 216.235 237.12 239.24" stroke="#D16244" stroke-width="10" stroke-linecap="round"/>
<path fill-rule="evenodd" clip-rule="evenodd" d="M110.34 218.795C110.34 218.795 110.34 218.795 110.34 218.795C110.34 235.206 123.771 248.509 140.34 248.509C156.909 248.509 170.34 235.206 170.34 218.795C170.34 218.795 170.34 218.795 170.34 218.795H110.34Z" fill="black"/>
<path d="M161.366 239.99C155.953 245.259 148.53 248.509 140.34 248.509C132.582 248.509 125.513 245.593 120.187 240.807C123.35 236.442 128.179 233.652 133.59 233.652C136.278 233.652 138.822 234.341 141.09 235.569C143.358 234.341 145.902 233.652 148.59 233.652C153.655 233.652 158.211 236.097 161.366 239.99Z" fill="#F34D4D"/>
<path fill-rule="evenodd" clip-rule="evenodd" d="M135.048 218.795V225.12C135.048 226.225 135.944 227.12 137.048 227.12H138.048C139.153 227.12 140.048 226.225 140.048 225.12V218.795H135.048Z" fill="white"/>
<path fill-rule="evenodd" clip-rule="evenodd" d="M140.632 218.795V225.12C140.632 226.225 141.527 227.12 142.632 227.12H143.632C144.736 227.12 145.632 226.225 145.632 225.12V218.795H140.632Z" fill="white"/>
<path d="M174.978 146.503C186.99 146.503 196.728 136.765 196.728 124.753C196.728 112.741 186.99 103.003 174.978 103.003C162.966 103.003 153.228 112.741 153.228 124.753C153.228 136.765 162.966 146.503 174.978 146.503Z" fill="white"/>
<path d="M175.703 135.266L164.197 141.315L166.395 128.503L157.086 119.429L169.95 117.56L175.703 105.903L181.456 117.56L194.32 119.429L185.012 128.503L187.209 141.315L175.703 135.266Z" fill="url(#paint0_linear)"/>
<path d="M104.978 146.503C116.99 146.503 126.728 136.765 126.728 124.753C126.728 112.741 116.99 103.003 104.978 103.003C92.9658 103.003 83.228 112.741 83.228 124.753C83.228 136.765 92.9658 146.503 104.978 146.503Z" fill="white"/>
<path d="M105.703 135.266L94.1972 141.315L96.3946 128.503L87.0861 119.429L99.9501 117.56L105.703 105.903L111.456 117.56L124.32 119.429L115.012 128.503L117.209 141.315L105.703 135.266Z" fill="url(#paint1_linear)"/>
<defs>
<linearGradient id="paint0_linear" x1="209.9" y1="133.122" x2="186.038" y2="94.334" gradientUnits="userSpaceOnUse">
<stop stop-color="#FFFF8C"/>
<stop offset="1" stop-color="#F15A24"/>
</linearGradient>
<linearGradient id="paint1_linear" x1="139.9" y1="133.122" x2="116.038" y2="94.334" gradientUnits="userSpaceOnUse">
<stop stop-color="#FFFF8C"/>
<stop offset="1" stop-color="#F15A24"/>
</linearGradient>
</defs>
</svg>
