<svg width="282" height="275" viewBox="0 0 282 275" fill="none" xmlns="http://www.w3.org/2000/svg">
<ellipse cx="204.862" cy="74.0622" rx="56.2441" ry="56.4548" fill="#FFD037"/>
<ellipse cx="202.069" cy="75.1128" rx="45.4476" ry="46.3345" fill="#FF3D64"/>
<ellipse cx="76.1917" cy="74.0622" rx="56.2441" ry="56.4548" fill="#FFD037"/>
<ellipse cx="75.0453" cy="77.1743" rx="45.4476" ry="46.3345" fill="#FF3D64"/>
<path fill-rule="evenodd" clip-rule="evenodd" d="M242.589 195.492C233.555 212.901 202.628 233.946 174.004 245.889C168.371 252.691 155.206 257.463 139.864 257.463C124.521 257.463 111.356 252.691 105.723 245.887C77.1016 233.945 46.1771 212.901 37.1443 195.493C28.3718 178.586 33.3683 152.535 40.5332 139.512C43.9248 133.347 47.8104 130.418 50.8306 128.141C53.8031 125.899 55.9374 124.29 55.9374 120.851C55.9374 111.015 58.566 113.518 65.7291 120.338C74.0018 128.214 88.3226 141.849 111.628 148.886C118.426 144.796 128.555 142.202 139.867 142.202C151.176 142.202 161.302 144.795 168.101 148.883C191.408 141.846 205.729 128.21 214.003 120.334C221.166 113.514 223.795 111.011 223.795 120.847C223.795 124.286 225.929 125.895 228.902 128.137C231.922 130.414 235.808 133.344 239.2 139.508C246.365 152.532 251.362 178.584 242.589 195.492Z" fill="#FFEBB4"/>
<path d="M225.727 142.615C225.727 196.337 187.286 168.883 139.867 168.883C92.4472 168.883 54.0063 196.337 54.0063 142.615C54.0063 88.8925 92.4472 45.3418 139.867 45.3418C187.286 45.3418 225.727 88.8925 225.727 142.615Z" fill="#FFD037"/>
<path d="M159.24 193.21C159.24 204.134 146.755 216.458 140.045 216.458C133.335 216.458 120.493 204.134 120.493 193.21C120.493 182.286 129.121 181.399 140.045 181.399C150.969 181.399 159.24 182.286 159.24 193.21Z" fill="#FF3D64"/>
<path d="M103.822 202.395C98.9873 202.394 58.1138 202.395 27.3488 216.459" stroke="#D16244" stroke-width="10" stroke-linecap="round"/>
<path d="M103.822 203.276C99.6721 204.819 64.5896 217.867 43.0854 240.869" stroke="#D16244" stroke-width="10" stroke-linecap="round"/>
<path d="M175.907 203.275C180.742 203.275 221.618 203.276 252.384 217.341" stroke="#D16244" stroke-width="10" stroke-linecap="round"/>
<path d="M175.907 204.158C180.057 205.701 215.142 218.751 236.647 241.756" stroke="#D16244" stroke-width="10" stroke-linecap="round"/>
<rect x="95.5397" y="104.007" width="42.5708" height="6.7597" transform="rotate(45 95.5397 104.007)" fill="black"/>
<rect x="90.3288" y="134.108" width="42.5708" height="6.7597" transform="rotate(-45 90.3288 134.108)" fill="black"/>
<rect x="159.302" y="104.008" width="42.5708" height="6.7597" transform="rotate(45 159.302 104.008)" fill="#090808"/>
<rect x="154.091" y="134.109" width="42.5708" height="6.7597" transform="rotate(-45 154.091 134.109)" fill="#090808"/>
<path d="M113.724 228.336C113.724 228.336 121.129 219.967 121.129 228.336C121.129 236.705 125.206 239.51 130.985 232.213C136.764 224.915 139.915 236.688 144.533 236.688C149.151 236.688 148.623 228.336 153.51 228.336C158.396 228.336 163.064 238.655 163.064 238.655" stroke="black" stroke-width="2" stroke-linecap="round"/>
</svg>
