<svg width="281" height="274" viewBox="0 0 281 274" fill="none" xmlns="http://www.w3.org/2000/svg">
<ellipse cx="204.835" cy="69.78" rx="56.2441" ry="56.4548" fill="#FFD037"/>
<ellipse cx="202.042" cy="70.8306" rx="45.4476" ry="46.3345" fill="#FF3D64"/>
<ellipse cx="76.165" cy="69.78" rx="56.2441" ry="56.4548" fill="#FFD037"/>
<ellipse cx="75.0187" cy="72.8931" rx="45.4476" ry="46.3345" fill="#FF3D64"/>
<path fill-rule="evenodd" clip-rule="evenodd" d="M242.562 191.208C233.528 208.618 202.601 229.663 173.977 241.606C168.344 248.408 155.179 253.18 139.837 253.18C124.495 253.18 111.329 248.407 105.696 241.604C77.0748 229.662 46.1503 208.618 37.1176 191.21C28.345 174.303 33.3416 148.251 40.5065 135.228C43.898 129.064 47.7836 126.135 50.8039 123.857C53.7764 121.616 55.9107 120.007 55.9107 116.568C55.9107 106.732 58.5392 109.235 65.7024 116.055C73.9751 123.931 88.2959 137.565 111.601 144.603C118.399 140.513 128.528 137.919 139.84 137.919C151.149 137.919 161.276 140.512 168.074 144.6C191.381 137.562 205.703 123.927 213.976 116.051C221.139 109.23 223.768 106.728 223.768 116.564C223.768 120.003 225.902 121.612 228.875 123.853C231.895 126.131 235.781 129.06 239.173 135.225C246.338 148.248 251.335 174.301 242.562 191.208Z" fill="#FFEBB4"/>
<path d="M225.7 138.334C225.7 192.056 187.259 164.602 139.84 164.602C92.4206 164.602 53.9796 192.056 53.9796 138.334C53.9796 84.6112 92.4206 41.0605 139.84 41.0605C187.259 41.0605 225.7 84.6112 225.7 138.334Z" fill="#FFD037"/>
<path d="M159.214 188.928C159.214 199.852 146.728 212.176 140.018 212.176C133.308 212.176 120.466 199.852 120.466 188.928C120.466 178.004 129.094 177.117 140.018 177.117C150.943 177.117 159.214 178.004 159.214 188.928Z" fill="#FF3D64"/>
<path d="M103.795 198.111C98.9606 198.111 58.0871 198.112 27.3221 212.175" stroke="#D16244" stroke-width="10" stroke-linecap="round"/>
<path d="M103.795 198.993C99.6455 200.536 64.5629 213.584 43.0588 236.586" stroke="#D16244" stroke-width="10" stroke-linecap="round"/>
<path d="M175.88 198.994C180.715 198.994 221.591 198.995 252.358 213.06" stroke="#D16244" stroke-width="10" stroke-linecap="round"/>
<path d="M175.88 199.877C180.03 201.42 215.115 214.47 236.62 237.474" stroke="#D16244" stroke-width="10" stroke-linecap="round"/>
<path d="M178.999 140.447C190.24 140.447 199.354 131.385 199.354 120.207C199.354 109.029 190.24 99.9668 178.999 99.9668C167.757 99.9668 158.644 109.029 158.644 120.207C158.644 131.385 167.757 140.447 178.999 140.447Z" fill="white"/>
<path fill-rule="evenodd" clip-rule="evenodd" d="M195.14 120.242C195.14 129.087 187.93 136.257 179.035 136.257C170.14 136.257 162.929 129.087 162.929 120.242C162.929 117.26 163.749 114.469 165.176 112.078C166.086 113.646 167.79 114.702 169.741 114.702C172.65 114.702 175.008 112.357 175.008 109.465C175.008 107.811 174.237 106.336 173.033 105.376C174.888 104.635 176.913 104.228 179.035 104.228C187.93 104.228 195.14 111.398 195.14 120.242Z" fill="black"/>
<path d="M107.314 152.767C125.887 152.767 140.944 137.795 140.944 119.327C140.944 100.858 125.887 85.8867 107.314 85.8867C88.7403 85.8867 73.6836 100.858 73.6836 119.327C73.6836 137.795 88.7403 152.767 107.314 152.767Z" fill="white"/>
<path fill-rule="evenodd" clip-rule="evenodd" d="M133.864 119.327C133.864 133.907 121.977 145.727 107.314 145.727C92.6504 145.727 80.7635 133.907 80.7635 119.327C80.7635 114.411 82.1148 109.809 84.4681 105.868C85.9681 108.453 88.7767 110.193 91.994 110.193C96.7891 110.193 100.676 106.328 100.676 101.56C100.676 98.8337 99.4054 96.4026 97.4206 94.8204C100.478 93.5989 103.817 92.9268 107.314 92.9268C121.977 92.9268 133.864 104.746 133.864 119.327Z" fill="black"/>
<path d="M122.359 142.207C124.802 142.207 126.784 140.237 126.784 137.807C126.784 135.377 124.802 133.407 122.359 133.407C119.915 133.407 117.934 135.377 117.934 137.807C117.934 140.237 119.915 142.207 122.359 142.207Z" fill="white"/>
<path d="M110.417 226.109H170.192C164.528 233.289 153.269 238.181 140.305 238.181C127.34 238.181 116.081 233.289 110.417 226.109L110.417 226.109Z" fill="black"/>
<path fill-rule="evenodd" clip-rule="evenodd" d="M124.588 228.121C124.586 228.288 124.584 228.456 124.584 228.624C124.584 241.681 131.415 252.265 139.842 252.265C148.268 252.265 155.099 241.681 155.099 228.624C155.099 228.456 155.098 228.288 155.096 228.121H124.588Z" fill="#F34D4D"/>
</svg>
