<svg width="281" height="274" viewBox="0 0 281 274" fill="none" xmlns="http://www.w3.org/2000/svg">
<ellipse cx="204.835" cy="72.529" rx="56.2441" ry="56.4548" fill="#FFD037"/>
<ellipse cx="202.042" cy="73.5796" rx="45.4476" ry="46.3345" fill="#FF3D64"/>
<ellipse cx="76.165" cy="72.529" rx="56.2441" ry="56.4548" fill="#FFD037"/>
<ellipse cx="75.0186" cy="75.6411" rx="45.4476" ry="46.3345" fill="#FF3D64"/>
<path fill-rule="evenodd" clip-rule="evenodd" d="M242.562 193.958C233.528 211.368 202.601 232.413 173.977 244.356C168.344 251.158 155.179 255.93 139.837 255.93C124.495 255.93 111.329 251.157 105.696 244.354C77.0748 232.412 46.1503 211.368 37.1176 193.96C28.345 177.053 33.3416 151.001 40.5065 137.978C43.898 131.814 47.7836 128.885 50.8039 126.607C53.7764 124.366 55.9107 122.757 55.9107 119.318C55.9107 109.482 58.5392 111.985 65.7024 118.805C73.9751 126.681 88.2959 140.315 111.601 147.353C118.399 143.263 128.528 140.669 139.84 140.669C151.149 140.669 161.276 143.262 168.074 147.35C191.381 140.312 205.703 126.677 213.976 118.801C221.139 111.98 223.768 109.478 223.768 119.314C223.768 122.753 225.902 124.362 228.875 126.603C231.895 128.881 235.781 131.81 239.173 137.975C246.338 150.998 251.335 177.051 242.562 193.958Z" fill="#FFEBB4"/>
<path d="M225.7 141.082C225.7 194.804 187.259 167.35 139.84 167.35C92.4205 167.35 53.9796 194.804 53.9796 141.082C53.9796 87.3593 92.4205 43.8086 139.84 43.8086C187.259 43.8086 225.7 87.3593 225.7 141.082Z" fill="#FFD037"/>
<path d="M159.214 195.142C159.214 206.066 146.728 218.39 140.018 218.39C133.308 218.39 120.466 206.066 120.466 195.142C120.466 184.217 129.094 183.331 140.018 183.331C150.943 183.331 159.214 184.217 159.214 195.142Z" fill="#FF3D64"/>
<path d="M103.795 200.861C98.9606 200.861 58.0871 200.862 27.3221 214.925" stroke="#D16244" stroke-width="10" stroke-linecap="round"/>
<path d="M103.795 201.743C99.6454 203.286 64.5628 216.334 43.0587 239.336" stroke="#D16244" stroke-width="10" stroke-linecap="round"/>
<path d="M175.88 201.742C180.715 201.742 221.591 201.743 252.358 215.808" stroke="#D16244" stroke-width="10" stroke-linecap="round"/>
<path d="M175.88 202.625C180.03 204.168 215.115 217.218 236.62 240.223" stroke="#D16244" stroke-width="10" stroke-linecap="round"/>
<path fill-rule="evenodd" clip-rule="evenodd" d="M115.173 224.754C115.173 238.324 126.217 249.325 139.84 249.325C153.463 249.325 164.506 238.324 164.506 224.754H115.173Z" fill="black"/>
<path d="M157.128 242.281C152.677 246.638 146.574 249.326 139.84 249.326C133.461 249.326 127.648 246.914 123.27 242.956C125.87 239.347 129.841 237.04 134.29 237.04C136.5 237.04 138.592 237.609 140.456 238.625C142.321 237.609 144.413 237.04 146.623 237.04C150.788 237.04 154.534 239.061 157.128 242.281Z" fill="#F34D4D"/>
<path d="M152.761 143.15C149.937 138.931 148.29 133.858 148.29 128.4C148.29 113.736 160.177 101.85 174.84 101.85C189.503 101.85 201.39 113.736 201.39 128.4C201.39 133.858 199.743 138.931 196.919 143.15H152.761Z" fill="white"/>
<path fill-rule="evenodd" clip-rule="evenodd" d="M189.59 123.975C189.59 132.121 182.986 138.725 174.84 138.725C166.694 138.725 160.09 132.121 160.09 123.975C160.09 120.627 161.205 117.54 163.084 115.065C163.416 117.596 165.581 119.55 168.202 119.55C171.054 119.55 173.365 117.238 173.365 114.387C173.365 112.416 172.26 110.702 170.635 109.833C171.968 109.437 173.379 109.225 174.84 109.225C182.986 109.225 189.59 115.828 189.59 123.975Z" fill="black"/>
<path d="M82.7607 143.15C79.9368 138.931 78.2899 133.858 78.2899 128.4C78.2899 113.736 90.1767 101.85 104.84 101.85C119.503 101.85 131.39 113.736 131.39 128.4C131.39 133.858 129.743 138.931 126.919 143.15H82.7607Z" fill="white"/>
<path fill-rule="evenodd" clip-rule="evenodd" d="M119.59 123.975C119.59 132.121 112.986 138.725 104.84 138.725C96.6936 138.725 90.0898 132.121 90.0898 123.975C90.0898 120.627 91.2049 117.54 93.0839 115.065C93.4158 117.596 95.5809 119.55 98.2023 119.55C101.054 119.55 103.365 117.238 103.365 114.387C103.365 112.416 102.26 110.702 100.635 109.833C101.968 109.437 103.379 109.225 104.84 109.225C112.986 109.225 119.59 115.828 119.59 123.975Z" fill="black"/>
</svg>
